<?xml version="1.0" encoding="UTF-8" standalone="no"?>
<!-- Created with Inkscape (http://www.inkscape.org/) -->

<svg
   width="512"
   height="512"
   viewBox="0 0 512 512"
   version="1.1"
   id="svg1"
   xml:space="preserve"
   xmlns="http://www.w3.org/2000/svg"
   xmlns:svg="http://www.w3.org/2000/svg"
   xmlns:sketch="http://www.bohemiancoding.com/sketch/ns"><defs
     id="defs1" /><g
     id="layer1"><path
       d="m 459.36769,42.812606 c -6.72427,0 -12.18162,4.966905 -12.18162,11.086841 v 75.002683 c 0,15.59921 -10.19597,28.72608 -24.36318,33.67081 V 53.899447 c 0,-6.119936 -5.45735,-11.086841 -12.18158,-11.086841 -6.72425,0 -12.18159,4.966905 -12.18159,11.086841 V 162.57294 c -14.16722,-4.94473 -24.36319,-18.0716 -24.36319,-33.67081 V 53.899447 c 0,-6.119936 -5.45736,-11.086841 -12.18159,-11.086841 -6.72426,0 -12.18161,4.966905 -12.18161,11.086841 v 77.608103 c 0,22.7059 15.06862,42.09684 36.54479,50.65589 V 375.4186 c 0,11.47494 9.62346,20.81005 21.90249,21.94094 l 2.4607,0.23281 2.46068,-0.23281 c 12.27904,-1.13089 21.9025,-10.466 21.9025,-21.94094 V 182.17452 c 21.47616,-8.57013 36.54477,-27.96107 36.54477,-50.66697 V 53.899447 c 0,-6.119936 -5.45734,-11.086841 -12.18157,-11.086841"
       id="fork"
       sketch:type="MSShapeGroup"
       style="fill:#ee9b00;fill-opacity:1;fill-rule:evenodd;stroke:none;stroke-width:11.6214" /><g
       style="fill:none;fill-opacity:1;stroke:#005f73;stroke-opacity:1"
       id="g1"
       transform="matrix(14.958106,0,0,16.545943,14.166816,21.227809)"><path
         d="m 21,16 c 0,2.8284 0,4.2426 -0.8787,5.1213 C 19.2426,22 17.8284,22 15,22 H 9 C 6.17157,22 4.75736,22 3.87868,21.1213 3,20.2426 3,18.8284 3,16 V 8 C 3,5.17157 3,3.75736 3.87868,2.87868 4.75736,2 6.17157,2 9,2 h 6 c 2.8284,0 4.2426,0 5.1213,0.87868 C 21,3.75736 21,5.17157 21,8 v 4"
         stroke="#1c274c"
         stroke-width="1.5"
         stroke-linecap="round"
         id="path1"
         style="fill:none;fill-opacity:1;stroke:#005f73;stroke-opacity:1" /><path
         d="M 8,2 V 6 M 8,22 V 10"
         stroke="#1c274c"
         stroke-width="1.5"
         stroke-linecap="round"
         id="path2"
         style="fill:none;fill-opacity:1;stroke:#005f73;stroke-opacity:1" /><path
         d="M 2,12 H 4"
         stroke="#1c274c"
         stroke-width="1.5"
         stroke-linecap="round"
         id="path3"
         style="fill:none;fill-opacity:1;stroke:#005f73;stroke-opacity:1" /><path
         d="M 2,16 H 4"
         stroke="#1c274c"
         stroke-width="1.5"
         stroke-linecap="round"
         id="path4"
         style="fill:none;fill-opacity:1;stroke:#005f73;stroke-opacity:1" /><path
         d="M 2,8 H 4"
         stroke="#1c274c"
         stroke-width="1.5"
         stroke-linecap="round"
         id="path5"
         style="fill:none;fill-opacity:1;stroke:#005f73;stroke-opacity:1" /><path
         d="m 11.5,6.5 h 5"
         stroke="#1c274c"
         stroke-width="1.5"
         stroke-linecap="round"
         id="path6"
         style="fill:none;fill-opacity:1;stroke:#005f73;stroke-opacity:1" /><path
         d="m 11.5,10 h 5"
         stroke="#1c274c"
         stroke-width="1.5"
         stroke-linecap="round"
         id="path7"
         style="fill:none;fill-opacity:1;stroke:#005f73;stroke-opacity:1" /></g><path
       style="font-weight:bold;font-size:100px;line-height:22.6;font-family:Roboto;-inkscape-font-specification:'Roboto Bold';fill:#94d2bd;stroke:#94d2bd;stroke-opacity:0"
       d="m 124.41142,406.87704 v 71.09375 H 109.76298 L 81.247353,431.14462 v 46.82617 H 66.550087 v -71.09375 h 14.697266 l 28.515627,46.875 v -46.875 z m 9.66796,44.18946 q 0,-11.52344 6.54297,-19.18946 6.54297,-7.71484 18.45703,-7.71484 12.06055,0 18.55469,7.71484 6.49414,7.66602 6.49414,19.18946 v 1.02539 q 0,11.52344 -6.49414,19.18945 -6.49414,7.66602 -18.45703,7.66602 -11.86523,0 -18.4082,-7.47071 -6.49414,-7.4707 -6.68946,-18.75 z m 14.16016,1.02539 q 0,6.44531 2.44141,10.98633 2.49023,4.49218 8.49609,4.49218 5.9082,0 8.34961,-4.49218 2.49023,-4.49219 2.49023,-12.01172 0,-6.29883 -2.49023,-10.88867 -2.44141,-4.63868 -8.44727,-4.63868 -5.95703,0 -8.39843,4.58985 -2.44141,4.58984 -2.44141,11.96289 z m 71.04492,25.53711 q -3.95508,1.31836 -8.49609,1.31836 -6.9336,0 -11.03516,-3.61328 -4.10156,-3.61329 -4.10156,-12.01172 V 435.4415 h -7.76367 v -10.30274 h 7.76367 v -13.03711 h 14.11133 v 13.03711 h 8.98437 v 10.30274 h -8.98437 v 26.41601 q 0,3.32032 1.36719,4.39453 1.36718,1.07422 4.05273,1.07422 2.14844,0 4.10156,-0.39062 z m 52.29492,-8.25196 q -2.53906,3.61329 -7.71484,6.5918 -5.17578,2.97852 -12.89062,2.97852 -12.30469,0 -19.23829,-7.42188 -6.93359,-7.4707 -6.98242,-18.01758 v -2.05078 q 0,-11.96289 6.64063,-19.6289 6.68945,-7.66602 18.01758,-7.66602 11.37695,0 17.33398,7.12891 5.95703,7.1289 5.95703,18.84765 v 6.00586 h -33.64258 q 0.73242,5.12696 4.05274,8.30078 3.32031,3.125 8.74023,3.125 8.05664,0 12.74414,-5.9082 z m -22.26562,-33.83789 q -4.49219,0 -6.93359,3.02735 -2.44141,3.02734 -3.17383,7.91015 h 19.6289 v -1.07421 q -0.0976,-4.24805 -2.39257,-7.03125 -2.2461,-2.83204 -7.12891,-2.83204 z m 53.32031,32.03125 q 3.85742,0 6.34766,-2.09961 2.49023,-2.14843 2.53906,-5.76171 h 13.28125 q -0.0977,8.39843 -6.44531,13.81836 -6.29883,5.41992 -15.47852,5.41992 -12.25586,0 -18.35937,-7.71485 -6.05469,-7.76367 -6.05469,-18.99414 v -1.36718 q 0,-11.18165 6.05469,-18.94532 6.05468,-7.76367 18.31054,-7.76367 9.7168,0 15.77149,5.56641 6.10351,5.5664 6.20117,15.08789 h -13.28125 q -0.0488,-3.85742 -2.34375,-6.54297 -2.29492,-2.73438 -6.5918,-2.73438 -6.15234,0 -8.05664,4.63868 -1.90429,4.58984 -1.90429,12.06054 0,6.10352 1.85546,10.74219 1.9043,4.58984 8.1543,4.58984 z m 30.12695,-56.10351 q 0,-3.17383 2.14844,-5.22461 2.14844,-2.09961 5.76172,-2.09961 3.61328,0 5.76172,2.09961 2.14844,2.05078 2.14844,5.22461 0,3.125 -2.14844,5.22461 -2.14844,2.05078 -5.76172,2.05078 -3.61328,0 -5.76172,-2.05078 -2.14844,-2.09961 -2.14844,-5.22461 z m 15.03907,13.67187 v 52.83203 h -14.16016 v -52.83203 z m 38.67187,53.8086 q -7.91015,0 -12.93945,-5.61524 v 24.95117 h -14.16016 v -73.14453 h 13.13477 l 0.53711,5.12696 q 5.02929,-6.10352 13.28125,-6.10352 10.05859,0 15.33203,7.37305 5.32226,7.37304 5.32226,19.43359 v 1.02539 q 0,11.52344 -5.32226,19.23828 -5.27344,7.71485 -15.18555,7.71485 z m -3.80859,-43.35938 q -6.5918,0 -9.13086,5.12696 v 21.63085 q 2.63672,5.22461 9.22851,5.22461 5.51758,0 7.8125,-4.54101 2.29493,-4.58985 2.29493,-12.06055 0,-6.54297 -2.39258,-10.9375 -2.34375,-4.44336 -7.8125,-4.44336 z m 77.97851,33.78906 q -2.53906,3.61329 -7.71484,6.5918 -5.17578,2.97852 -12.89062,2.97852 -12.30469,0 -19.23829,-7.42188 -6.93359,-7.4707 -6.98242,-18.01758 v -2.05078 q 0,-11.96289 6.64063,-19.6289 6.68945,-7.66602 18.01758,-7.66602 11.37695,0 17.33398,7.12891 5.95703,7.1289 5.95703,18.84765 v 6.00586 h -33.64258 q 0.73242,5.12696 4.05274,8.30078 3.32031,3.125 8.74023,3.125 8.05664,0 12.74414,-5.9082 z m -22.26562,-33.83789 q -4.49219,0 -6.93359,3.02735 -2.44141,3.02734 -3.17383,7.91015 h 19.6289 v -1.07421 q -0.0976,-4.24805 -2.39257,-7.03125 -2.2461,-2.83204 -7.12891,-2.83204 z"
       id="text2"
       aria-label="Notecipe" /></g></svg>
